<svg xmlns="http://www.w3.org/2000/svg" xmlns:xlink="http://www.w3.org/1999/xlink" width="1em" height="1em" preserveAspectRatio="xMidYMid meet" viewBox="0 0 24 24" style="-ms-transform: rotate(360deg); -webkit-transform: rotate(360deg); transform: rotate(360deg);"><path fill="currentColor" fill-rule="evenodd" d="M24 12c0 6.627-5.373 12-12 12S0 18.627 0 12S5.373 0 12 0s12 5.373 12 12Zm-4.312-.942c.194.277.304.604.316.942a1.751 1.751 0 0 1-.972 1.596c.014.176.014.352 0 .528c0 2.688-3.132 4.872-6.996 4.872c-3.864 0-6.996-2.184-6.996-4.872a3.444 3.444 0 0 1 0-.528a1.75 1.75 0 1 1 1.932-2.868a8.568 8.568 0 0 1 4.68-1.476l.888-4.164a.372.372 0 0 1 .444-.288l2.94.588a1.2 1.2 0 1 1-.156.732L13.2 5.58l-.78 3.744a8.544 8.544 0 0 1 4.62 1.476a1.751 1.751 0 0 1 2.648.258ZM8.206 12.533a1.2 1.2 0 1 0 1.996 1.334a1.2 1.2 0 0 0-1.996-1.334Zm3.806 4.891c1.065.044 2.113-.234 2.964-.876a.335.335 0 1 0-.468-.48A3.936 3.936 0 0 1 12 16.8a3.924 3.924 0 0 1-2.496-.756a.324.324 0 0 0-.456.456a4.608 4.608 0 0 0 2.964.924Zm2.081-3.178c.198.132.418.25.655.25a1.199 1.199 0 0 0 1.212-1.248a1.2 1.2 0 1 0-1.867.998Z" clip-rule="evenodd"/><rect x="0" y="0" width="24" height="24" fill="rgba(0, 0, 0, 0)" /></svg>